# xmcd
#
# Track frame offsets:
# 150
# 19120
# 32217
# 44022
# 57575
# 71035
# 83735
# 94467
# 109625
# 123310
# 139182
# 149285
# 163002
# 176230
#
# Disc length: 2482 seconds
#
# Revision: 1
# Processed by: cddbd v1.5.1PL0 Copyright (c) Steve Scherf et al.
# Submitted via: Easy CD Ripper v2.27
#
DISCID=d109b00e
DTITLE=Jair Rodrigues - Serestas and Serenatas
DYEAR=2002
DGENRE=Blues
TTITLE0=SERTANEJA - Jair Rodrigues
TTITLE1=CADEIRA VAZIA - Jair Rodrigues
TTITLE2=POT-POURRI:A UTLIMA ESTROFE, MARIA BETHANIA MINHA CASA - Jair Rodrigues
TTITLE3=VELHO REALEJO - Jair Rodrigues
TTITLE4=RONDA - Jair Rodrigues
TTITLE5=GENTE HUMILDE - Jair Rodrigues
TTITLE6=AVE MARIA - Jair Rodrigues
TTITLE7=ÚLTIMO DESEJO - Jair Rodrigues
TTITLE8=BONECA - Jair Rodrigues
TTITLE9=CHÃO DE ESTRELAS - Jair Rodrigues
TTITLE10=NÚMERO UM - Jair Rodrigues
TTITLE11=SERRA DA BOA ESPERANÇA - Jair Rodrigues
TTITLE12=CINCO LETRAS QUE CHORAM - Jair Rodrigues
TTITLE13=BOA NOITE, AMOR - Jair Rodrigues
EXTD=
EXTT0=
EXTT1=
EXTT2=
EXTT3=
EXTT4=
EXTT5=
EXTT6=
EXTT7=
EXTT8=
EXTT9=
EXTT10=
EXTT11=
EXTT12=
EXTT13=
PLAYORDER=
